<mxfile host="app.diagrams.net" modified="2023-10-10T06:34:54.924Z" agent="Mozilla/5.0 (Windows NT 10.0; Win64; x64) AppleWebKit/537.36 (KHTML, like Gecko) Chrome/117.0.0.0 Safari/537.36 OPR/103.0.0.0" etag="6VlHRk0NJ0Zir1174x9l" version="22.0.4" type="device">
  <diagram name="Страница — 1" id="sKF7hT73zh9AMPzWDUYk">
    <mxGraphModel dx="2296" dy="780" grid="1" gridSize="10" guides="1" tooltips="1" connect="1" arrows="1" fold="1" page="1" pageScale="1" pageWidth="827" pageHeight="1169" math="0" shadow="0">
      <root>
        <mxCell id="0" />
        <mxCell id="1" parent="0" />
        <mxCell id="dz_vzdbdL12ZwfbwtRYd-1" value="Регистрация и аутентификация пользователей" style="rounded=0;whiteSpace=wrap;html=1;" parent="1" vertex="1">
          <mxGeometry x="350" y="260" width="170" height="90" as="geometry" />
        </mxCell>
        <mxCell id="dz_vzdbdL12ZwfbwtRYd-3" value="" style="endArrow=classic;html=1;rounded=0;" parent="1" edge="1">
          <mxGeometry width="50" height="50" relative="1" as="geometry">
            <mxPoint x="230" y="290" as="sourcePoint" />
            <mxPoint x="350" y="290" as="targetPoint" />
          </mxGeometry>
        </mxCell>
        <mxCell id="dz_vzdbdL12ZwfbwtRYd-5" value="Данные &lt;br&gt;пользователя" style="text;html=1;align=center;verticalAlign=middle;resizable=0;points=[];autosize=1;strokeColor=none;fillColor=none;" parent="1" vertex="1">
          <mxGeometry x="220" y="250" width="100" height="40" as="geometry" />
        </mxCell>
        <mxCell id="dz_vzdbdL12ZwfbwtRYd-7" value="" style="endArrow=classic;html=1;rounded=0;" parent="1" edge="1">
          <mxGeometry width="50" height="50" relative="1" as="geometry">
            <mxPoint x="230" y="330" as="sourcePoint" />
            <mxPoint x="350" y="330" as="targetPoint" />
          </mxGeometry>
        </mxCell>
        <mxCell id="dz_vzdbdL12ZwfbwtRYd-8" value="Запрос на &lt;br&gt;регистрацию" style="text;html=1;align=center;verticalAlign=middle;resizable=0;points=[];autosize=1;strokeColor=none;fillColor=none;" parent="1" vertex="1">
          <mxGeometry x="220" y="290" width="100" height="40" as="geometry" />
        </mxCell>
        <mxCell id="dz_vzdbdL12ZwfbwtRYd-10" value="" style="endArrow=classic;html=1;rounded=0;" parent="1" edge="1">
          <mxGeometry width="50" height="50" relative="1" as="geometry">
            <mxPoint x="380" y="200" as="sourcePoint" />
            <mxPoint x="380" y="260" as="targetPoint" />
          </mxGeometry>
        </mxCell>
        <mxCell id="dz_vzdbdL12ZwfbwtRYd-11" value="Политики &lt;br&gt;безопасности" style="text;html=1;align=center;verticalAlign=middle;resizable=0;points=[];autosize=1;strokeColor=none;fillColor=none;" parent="1" vertex="1">
          <mxGeometry x="330" y="160" width="100" height="40" as="geometry" />
        </mxCell>
        <mxCell id="dz_vzdbdL12ZwfbwtRYd-13" value="" style="endArrow=classic;html=1;rounded=0;" parent="1" edge="1">
          <mxGeometry width="50" height="50" relative="1" as="geometry">
            <mxPoint x="480" y="200" as="sourcePoint" />
            <mxPoint x="480" y="260" as="targetPoint" />
          </mxGeometry>
        </mxCell>
        <mxCell id="dz_vzdbdL12ZwfbwtRYd-15" value="Алгоритмы&lt;br&gt;аутентификации" style="text;html=1;align=center;verticalAlign=middle;resizable=0;points=[];autosize=1;strokeColor=none;fillColor=none;" parent="1" vertex="1">
          <mxGeometry x="420" y="160" width="120" height="40" as="geometry" />
        </mxCell>
        <mxCell id="dz_vzdbdL12ZwfbwtRYd-16" value="" style="endArrow=classic;html=1;rounded=0;entryX=0.063;entryY=1.013;entryDx=0;entryDy=0;entryPerimeter=0;" parent="1" edge="1">
          <mxGeometry width="50" height="50" relative="1" as="geometry">
            <mxPoint x="360" y="418.83" as="sourcePoint" />
            <mxPoint x="360.71000000000004" y="349.99999999999994" as="targetPoint" />
          </mxGeometry>
        </mxCell>
        <mxCell id="dz_vzdbdL12ZwfbwtRYd-18" value="Система&lt;br&gt;учетных&lt;br&gt;записей" style="text;html=1;align=center;verticalAlign=middle;resizable=0;points=[];autosize=1;strokeColor=none;fillColor=none;" parent="1" vertex="1">
          <mxGeometry x="320" y="410" width="70" height="60" as="geometry" />
        </mxCell>
        <mxCell id="dz_vzdbdL12ZwfbwtRYd-19" value="" style="endArrow=classic;html=1;rounded=0;entryX=0.063;entryY=1.013;entryDx=0;entryDy=0;entryPerimeter=0;" parent="1" edge="1">
          <mxGeometry width="50" height="50" relative="1" as="geometry">
            <mxPoint x="434.65" y="418.83" as="sourcePoint" />
            <mxPoint x="435.36" y="349.99999999999994" as="targetPoint" />
          </mxGeometry>
        </mxCell>
        <mxCell id="dz_vzdbdL12ZwfbwtRYd-20" value="" style="endArrow=classic;html=1;rounded=0;entryX=0.063;entryY=1.013;entryDx=0;entryDy=0;entryPerimeter=0;" parent="1" edge="1">
          <mxGeometry width="50" height="50" relative="1" as="geometry">
            <mxPoint x="510" y="418.83" as="sourcePoint" />
            <mxPoint x="510.71000000000004" y="349.99999999999994" as="targetPoint" />
          </mxGeometry>
        </mxCell>
        <mxCell id="dz_vzdbdL12ZwfbwtRYd-21" value="База&lt;br&gt;данных" style="text;html=1;align=center;verticalAlign=middle;resizable=0;points=[];autosize=1;strokeColor=none;fillColor=none;" parent="1" vertex="1">
          <mxGeometry x="400" y="420" width="70" height="40" as="geometry" />
        </mxCell>
        <mxCell id="dz_vzdbdL12ZwfbwtRYd-22" value="Методы проверки&lt;br&gt;аутентичности" style="text;html=1;align=center;verticalAlign=middle;resizable=0;points=[];autosize=1;strokeColor=none;fillColor=none;" parent="1" vertex="1">
          <mxGeometry x="460" y="420" width="120" height="40" as="geometry" />
        </mxCell>
        <mxCell id="dz_vzdbdL12ZwfbwtRYd-23" value="" style="endArrow=classic;html=1;rounded=0;" parent="1" edge="1">
          <mxGeometry width="50" height="50" relative="1" as="geometry">
            <mxPoint x="519.29" y="278.83" as="sourcePoint" />
            <mxPoint x="640" y="280" as="targetPoint" />
          </mxGeometry>
        </mxCell>
        <mxCell id="dz_vzdbdL12ZwfbwtRYd-24" value="" style="endArrow=classic;html=1;rounded=0;" parent="1" edge="1">
          <mxGeometry width="50" height="50" relative="1" as="geometry">
            <mxPoint x="519.29" y="328" as="sourcePoint" />
            <mxPoint x="640" y="330" as="targetPoint" />
          </mxGeometry>
        </mxCell>
        <mxCell id="dz_vzdbdL12ZwfbwtRYd-25" value="Учетная запись&lt;br&gt;пользователя" style="text;html=1;align=center;verticalAlign=middle;resizable=0;points=[];autosize=1;strokeColor=none;fillColor=none;" parent="1" vertex="1">
          <mxGeometry x="530" y="240" width="110" height="40" as="geometry" />
        </mxCell>
        <mxCell id="dz_vzdbdL12ZwfbwtRYd-26" value="Уведомление об &lt;br&gt;успешной регистрации" style="text;html=1;align=center;verticalAlign=middle;resizable=0;points=[];autosize=1;strokeColor=none;fillColor=none;" parent="1" vertex="1">
          <mxGeometry x="520" y="285" width="150" height="40" as="geometry" />
        </mxCell>
        <mxCell id="dz_vzdbdL12ZwfbwtRYd-27" value="Управление расписанием" style="rounded=0;whiteSpace=wrap;html=1;" parent="1" vertex="1">
          <mxGeometry x="340" y="650" width="170" height="90" as="geometry" />
        </mxCell>
        <mxCell id="dz_vzdbdL12ZwfbwtRYd-28" value="" style="endArrow=classic;html=1;rounded=0;" parent="1" edge="1">
          <mxGeometry width="50" height="50" relative="1" as="geometry">
            <mxPoint x="220" y="680" as="sourcePoint" />
            <mxPoint x="340" y="680" as="targetPoint" />
          </mxGeometry>
        </mxCell>
        <mxCell id="dz_vzdbdL12ZwfbwtRYd-29" value="Данные о&lt;br&gt;занятиях" style="text;html=1;align=center;verticalAlign=middle;resizable=0;points=[];autosize=1;strokeColor=none;fillColor=none;" parent="1" vertex="1">
          <mxGeometry x="220" y="640" width="80" height="40" as="geometry" />
        </mxCell>
        <mxCell id="dz_vzdbdL12ZwfbwtRYd-30" value="" style="endArrow=classic;html=1;rounded=0;" parent="1" edge="1">
          <mxGeometry width="50" height="50" relative="1" as="geometry">
            <mxPoint x="220" y="720" as="sourcePoint" />
            <mxPoint x="340" y="720" as="targetPoint" />
          </mxGeometry>
        </mxCell>
        <mxCell id="dz_vzdbdL12ZwfbwtRYd-31" value="Запросы со стороны&lt;br&gt;пользователей" style="text;html=1;align=center;verticalAlign=middle;resizable=0;points=[];autosize=1;strokeColor=none;fillColor=none;" parent="1" vertex="1">
          <mxGeometry x="190" y="680" width="140" height="40" as="geometry" />
        </mxCell>
        <mxCell id="dz_vzdbdL12ZwfbwtRYd-32" value="" style="endArrow=classic;html=1;rounded=0;" parent="1" edge="1">
          <mxGeometry width="50" height="50" relative="1" as="geometry">
            <mxPoint x="370" y="590" as="sourcePoint" />
            <mxPoint x="370" y="650" as="targetPoint" />
          </mxGeometry>
        </mxCell>
        <mxCell id="dz_vzdbdL12ZwfbwtRYd-33" value="Административные&lt;br&gt;права&lt;br&gt;доступа" style="text;html=1;align=center;verticalAlign=middle;resizable=0;points=[];autosize=1;strokeColor=none;fillColor=none;" parent="1" vertex="1">
          <mxGeometry x="305" y="536" width="130" height="60" as="geometry" />
        </mxCell>
        <mxCell id="dz_vzdbdL12ZwfbwtRYd-34" value="" style="endArrow=classic;html=1;rounded=0;" parent="1" edge="1">
          <mxGeometry width="50" height="50" relative="1" as="geometry">
            <mxPoint x="470" y="590" as="sourcePoint" />
            <mxPoint x="470" y="650" as="targetPoint" />
          </mxGeometry>
        </mxCell>
        <mxCell id="dz_vzdbdL12ZwfbwtRYd-35" value="Алгоритмы&lt;br&gt;проверки&lt;br&gt;конфликтов" style="text;html=1;align=center;verticalAlign=middle;resizable=0;points=[];autosize=1;strokeColor=none;fillColor=none;" parent="1" vertex="1">
          <mxGeometry x="425" y="536" width="90" height="60" as="geometry" />
        </mxCell>
        <mxCell id="dz_vzdbdL12ZwfbwtRYd-36" value="" style="endArrow=classic;html=1;rounded=0;entryX=0.063;entryY=1.013;entryDx=0;entryDy=0;entryPerimeter=0;" parent="1" edge="1">
          <mxGeometry width="50" height="50" relative="1" as="geometry">
            <mxPoint x="350" y="808.8299999999999" as="sourcePoint" />
            <mxPoint x="350.71000000000004" y="740" as="targetPoint" />
          </mxGeometry>
        </mxCell>
        <mxCell id="dz_vzdbdL12ZwfbwtRYd-37" value="Уведомительная&lt;br&gt;система" style="text;html=1;align=center;verticalAlign=middle;resizable=0;points=[];autosize=1;strokeColor=none;fillColor=none;" parent="1" vertex="1">
          <mxGeometry x="288" y="811" width="120" height="40" as="geometry" />
        </mxCell>
        <mxCell id="dz_vzdbdL12ZwfbwtRYd-38" value="" style="endArrow=classic;html=1;rounded=0;entryX=0.063;entryY=1.013;entryDx=0;entryDy=0;entryPerimeter=0;" parent="1" edge="1">
          <mxGeometry width="50" height="50" relative="1" as="geometry">
            <mxPoint x="424.65" y="808.8299999999999" as="sourcePoint" />
            <mxPoint x="425.36" y="740" as="targetPoint" />
          </mxGeometry>
        </mxCell>
        <mxCell id="dz_vzdbdL12ZwfbwtRYd-39" value="" style="endArrow=classic;html=1;rounded=0;entryX=0.063;entryY=1.013;entryDx=0;entryDy=0;entryPerimeter=0;" parent="1" edge="1">
          <mxGeometry width="50" height="50" relative="1" as="geometry">
            <mxPoint x="500" y="808.8299999999999" as="sourcePoint" />
            <mxPoint x="500.71000000000004" y="740" as="targetPoint" />
          </mxGeometry>
        </mxCell>
        <mxCell id="dz_vzdbdL12ZwfbwtRYd-40" value="База&lt;br&gt;данных" style="text;html=1;align=center;verticalAlign=middle;resizable=0;points=[];autosize=1;strokeColor=none;fillColor=none;" parent="1" vertex="1">
          <mxGeometry x="390" y="810" width="70" height="40" as="geometry" />
        </mxCell>
        <mxCell id="dz_vzdbdL12ZwfbwtRYd-41" value="Алгоритмы&lt;br&gt;проверки&lt;br&gt;запросов" style="text;html=1;align=center;verticalAlign=middle;resizable=0;points=[];autosize=1;strokeColor=none;fillColor=none;" parent="1" vertex="1">
          <mxGeometry x="456" y="804" width="90" height="60" as="geometry" />
        </mxCell>
        <mxCell id="dz_vzdbdL12ZwfbwtRYd-42" value="" style="endArrow=classic;html=1;rounded=0;" parent="1" edge="1">
          <mxGeometry width="50" height="50" relative="1" as="geometry">
            <mxPoint x="509.28999999999996" y="668.8299999999999" as="sourcePoint" />
            <mxPoint x="630" y="670" as="targetPoint" />
          </mxGeometry>
        </mxCell>
        <mxCell id="dz_vzdbdL12ZwfbwtRYd-43" value="" style="endArrow=classic;html=1;rounded=0;" parent="1" edge="1">
          <mxGeometry width="50" height="50" relative="1" as="geometry">
            <mxPoint x="509.28999999999996" y="718" as="sourcePoint" />
            <mxPoint x="630" y="720" as="targetPoint" />
          </mxGeometry>
        </mxCell>
        <mxCell id="dz_vzdbdL12ZwfbwtRYd-44" value="Обновленное&lt;br&gt;расписание" style="text;html=1;align=center;verticalAlign=middle;resizable=0;points=[];autosize=1;strokeColor=none;fillColor=none;" parent="1" vertex="1">
          <mxGeometry x="525" y="630" width="100" height="40" as="geometry" />
        </mxCell>
        <mxCell id="dz_vzdbdL12ZwfbwtRYd-45" value="Уведомления&lt;br&gt;пользователям" style="text;html=1;align=center;verticalAlign=middle;resizable=0;points=[];autosize=1;strokeColor=none;fillColor=none;" parent="1" vertex="1">
          <mxGeometry x="520" y="675" width="110" height="40" as="geometry" />
        </mxCell>
        <mxCell id="dz_vzdbdL12ZwfbwtRYd-65" value="Поиск учебных занятий" style="rounded=0;whiteSpace=wrap;html=1;" parent="1" vertex="1">
          <mxGeometry x="-80" y="1213" width="170" height="122" as="geometry" />
        </mxCell>
        <mxCell id="dz_vzdbdL12ZwfbwtRYd-70" value="" style="endArrow=classic;html=1;rounded=0;" parent="1" edge="1">
          <mxGeometry width="50" height="50" relative="1" as="geometry">
            <mxPoint x="-1" y="1153" as="sourcePoint" />
            <mxPoint x="-1" y="1213" as="targetPoint" />
          </mxGeometry>
        </mxCell>
        <mxCell id="dz_vzdbdL12ZwfbwtRYd-71" value="Алгоритмы поиска" style="text;html=1;align=center;verticalAlign=middle;resizable=0;points=[];autosize=1;strokeColor=none;fillColor=none;" parent="1" vertex="1">
          <mxGeometry x="-65" y="1121" width="130" height="30" as="geometry" />
        </mxCell>
        <mxCell id="dz_vzdbdL12ZwfbwtRYd-76" value="" style="endArrow=classic;html=1;rounded=0;entryX=0.063;entryY=1.013;entryDx=0;entryDy=0;entryPerimeter=0;" parent="1" edge="1">
          <mxGeometry width="50" height="50" relative="1" as="geometry">
            <mxPoint x="4.649999999999977" y="1403.83" as="sourcePoint" />
            <mxPoint x="5.360000000000014" y="1335" as="targetPoint" />
          </mxGeometry>
        </mxCell>
        <mxCell id="dz_vzdbdL12ZwfbwtRYd-78" value="База&lt;br&gt;данных" style="text;html=1;align=center;verticalAlign=middle;resizable=0;points=[];autosize=1;strokeColor=none;fillColor=none;" parent="1" vertex="1">
          <mxGeometry x="-30" y="1406" width="70" height="40" as="geometry" />
        </mxCell>
        <mxCell id="dz_vzdbdL12ZwfbwtRYd-80" value="" style="endArrow=classic;html=1;rounded=0;entryX=0;entryY=0.5;entryDx=0;entryDy=0;edgeStyle=elbowEdgeStyle;exitX=1;exitY=0.5;exitDx=0;exitDy=0;" parent="1" target="dz_vzdbdL12ZwfbwtRYd-103" edge="1" source="dz_vzdbdL12ZwfbwtRYd-65">
          <mxGeometry width="50" height="50" relative="1" as="geometry">
            <mxPoint x="89.28999999999996" y="1246.83" as="sourcePoint" />
            <mxPoint x="210" y="1248" as="targetPoint" />
          </mxGeometry>
        </mxCell>
        <mxCell id="dz_vzdbdL12ZwfbwtRYd-82" value="Данные поиска" style="text;html=1;align=center;verticalAlign=middle;resizable=0;points=[];autosize=1;strokeColor=none;fillColor=none;" parent="1" vertex="1">
          <mxGeometry x="100" y="1236" width="110" height="30" as="geometry" />
        </mxCell>
        <mxCell id="dz_vzdbdL12ZwfbwtRYd-103" value="Предоставление информации" style="rounded=0;whiteSpace=wrap;html=1;" parent="1" vertex="1">
          <mxGeometry x="330" y="1294" width="170" height="90" as="geometry" />
        </mxCell>
        <mxCell id="dz_vzdbdL12ZwfbwtRYd-108" value="" style="endArrow=classic;html=1;rounded=0;" parent="1" edge="1">
          <mxGeometry width="50" height="50" relative="1" as="geometry">
            <mxPoint x="414" y="1234" as="sourcePoint" />
            <mxPoint x="414" y="1294" as="targetPoint" />
          </mxGeometry>
        </mxCell>
        <mxCell id="dz_vzdbdL12ZwfbwtRYd-109" value="Пользовательский&lt;br&gt;интерфейс" style="text;html=1;align=center;verticalAlign=middle;resizable=0;points=[];autosize=1;strokeColor=none;fillColor=none;" parent="1" vertex="1">
          <mxGeometry x="349" y="1190" width="130" height="40" as="geometry" />
        </mxCell>
        <mxCell id="dz_vzdbdL12ZwfbwtRYd-122" value="Ввод параметров поиска" style="rounded=0;whiteSpace=wrap;html=1;" parent="1" vertex="1">
          <mxGeometry x="-510" y="1150" width="170" height="90" as="geometry" />
        </mxCell>
        <mxCell id="dz_vzdbdL12ZwfbwtRYd-123" value="" style="endArrow=classic;html=1;rounded=0;" parent="1" edge="1">
          <mxGeometry width="50" height="50" relative="1" as="geometry">
            <mxPoint x="-630" y="1199" as="sourcePoint" />
            <mxPoint x="-510" y="1199" as="targetPoint" />
          </mxGeometry>
        </mxCell>
        <mxCell id="dz_vzdbdL12ZwfbwtRYd-124" value="Параметры поиска" style="text;html=1;align=center;verticalAlign=middle;resizable=0;points=[];autosize=1;strokeColor=none;fillColor=none;" parent="1" vertex="1">
          <mxGeometry x="-634" y="1162" width="130" height="30" as="geometry" />
        </mxCell>
        <mxCell id="dz_vzdbdL12ZwfbwtRYd-131" value="" style="endArrow=classic;html=1;rounded=0;entryX=0.063;entryY=1.013;entryDx=0;entryDy=0;entryPerimeter=0;" parent="1" edge="1">
          <mxGeometry width="50" height="50" relative="1" as="geometry">
            <mxPoint x="-429" y="1308.83" as="sourcePoint" />
            <mxPoint x="-428.28999999999996" y="1240" as="targetPoint" />
          </mxGeometry>
        </mxCell>
        <mxCell id="dz_vzdbdL12ZwfbwtRYd-132" value="Пользователь" style="text;html=1;align=center;verticalAlign=middle;resizable=0;points=[];autosize=1;strokeColor=none;fillColor=none;" parent="1" vertex="1">
          <mxGeometry x="-478.85" y="1319" width="100" height="30" as="geometry" />
        </mxCell>
        <mxCell id="dz_vzdbdL12ZwfbwtRYd-137" value="" style="endArrow=classic;html=1;rounded=0;entryX=0;entryY=0.25;entryDx=0;entryDy=0;edgeStyle=elbowEdgeStyle;exitX=1;exitY=0.5;exitDx=0;exitDy=0;" parent="1" target="dz_vzdbdL12ZwfbwtRYd-65" edge="1" source="dz_vzdbdL12ZwfbwtRYd-122">
          <mxGeometry width="50" height="50" relative="1" as="geometry">
            <mxPoint x="-340.71000000000004" y="1168.83" as="sourcePoint" />
            <mxPoint x="-220" y="1170" as="targetPoint" />
            <Array as="points">
              <mxPoint x="-190" y="1205" />
            </Array>
          </mxGeometry>
        </mxCell>
        <mxCell id="dz_vzdbdL12ZwfbwtRYd-139" value="Информация для&lt;br&gt;алгоритмов поиска" style="text;html=1;align=center;verticalAlign=middle;resizable=0;points=[];autosize=1;strokeColor=none;fillColor=none;" parent="1" vertex="1">
          <mxGeometry x="-340" y="1130" width="130" height="40" as="geometry" />
        </mxCell>
        <mxCell id="dz_vzdbdL12ZwfbwtRYd-147" value="А0" style="text;html=1;strokeColor=none;fillColor=none;align=center;verticalAlign=middle;whiteSpace=wrap;rounded=0;" parent="1" vertex="1">
          <mxGeometry x="-360" y="1220" width="20" height="20" as="geometry" />
        </mxCell>
        <mxCell id="dz_vzdbdL12ZwfbwtRYd-148" value="А1" style="text;html=1;strokeColor=none;fillColor=none;align=center;verticalAlign=middle;whiteSpace=wrap;rounded=0;" parent="1" vertex="1">
          <mxGeometry x="71" y="1315" width="20" height="20" as="geometry" />
        </mxCell>
        <mxCell id="dz_vzdbdL12ZwfbwtRYd-149" value="А2" style="text;html=1;strokeColor=none;fillColor=none;align=center;verticalAlign=middle;whiteSpace=wrap;rounded=0;" parent="1" vertex="1">
          <mxGeometry x="481" y="1364" width="20" height="20" as="geometry" />
        </mxCell>
        <mxCell id="ktwjEbJw_RnijGOUpLHC-1" value="Мониторинг и &lt;br&gt;отчетность" style="rounded=0;whiteSpace=wrap;html=1;" parent="1" vertex="1">
          <mxGeometry x="-290" y="624" width="170" height="90" as="geometry" />
        </mxCell>
        <mxCell id="ktwjEbJw_RnijGOUpLHC-2" value="" style="endArrow=classic;html=1;rounded=0;" parent="1" edge="1">
          <mxGeometry width="50" height="50" relative="1" as="geometry">
            <mxPoint x="-410" y="654" as="sourcePoint" />
            <mxPoint x="-290" y="654" as="targetPoint" />
          </mxGeometry>
        </mxCell>
        <mxCell id="ktwjEbJw_RnijGOUpLHC-3" value="Данные о&lt;br&gt;произволительности &lt;br&gt;системы" style="text;html=1;align=center;verticalAlign=middle;resizable=0;points=[];autosize=1;strokeColor=none;fillColor=none;" parent="1" vertex="1">
          <mxGeometry x="-433" y="597" width="140" height="60" as="geometry" />
        </mxCell>
        <mxCell id="ktwjEbJw_RnijGOUpLHC-4" value="" style="endArrow=classic;html=1;rounded=0;" parent="1" edge="1">
          <mxGeometry width="50" height="50" relative="1" as="geometry">
            <mxPoint x="-410" y="694" as="sourcePoint" />
            <mxPoint x="-290" y="694" as="targetPoint" />
          </mxGeometry>
        </mxCell>
        <mxCell id="ktwjEbJw_RnijGOUpLHC-5" value="Запросы на&amp;nbsp;получение &lt;br&gt;статистических данных " style="text;html=1;align=center;verticalAlign=middle;resizable=0;points=[];autosize=1;strokeColor=none;fillColor=none;" parent="1" vertex="1">
          <mxGeometry x="-445" y="654" width="150" height="40" as="geometry" />
        </mxCell>
        <mxCell id="ktwjEbJw_RnijGOUpLHC-6" value="" style="endArrow=classic;html=1;rounded=0;" parent="1" edge="1">
          <mxGeometry width="50" height="50" relative="1" as="geometry">
            <mxPoint x="-260" y="564" as="sourcePoint" />
            <mxPoint x="-260" y="624" as="targetPoint" />
          </mxGeometry>
        </mxCell>
        <mxCell id="ktwjEbJw_RnijGOUpLHC-7" value="Механизмы сбора и &lt;br&gt;анализа данных" style="text;html=1;align=center;verticalAlign=middle;resizable=0;points=[];autosize=1;strokeColor=none;fillColor=none;" parent="1" vertex="1">
          <mxGeometry x="-325" y="520" width="130" height="40" as="geometry" />
        </mxCell>
        <mxCell id="ktwjEbJw_RnijGOUpLHC-8" value="" style="endArrow=classic;html=1;rounded=0;" parent="1" edge="1">
          <mxGeometry width="50" height="50" relative="1" as="geometry">
            <mxPoint x="-160" y="564" as="sourcePoint" />
            <mxPoint x="-160" y="624" as="targetPoint" />
          </mxGeometry>
        </mxCell>
        <mxCell id="ktwjEbJw_RnijGOUpLHC-9" value="Генерация&lt;br&gt;отчетов" style="text;html=1;align=center;verticalAlign=middle;resizable=0;points=[];autosize=1;strokeColor=none;fillColor=none;" parent="1" vertex="1">
          <mxGeometry x="-200" y="520" width="80" height="40" as="geometry" />
        </mxCell>
        <mxCell id="ktwjEbJw_RnijGOUpLHC-10" value="" style="endArrow=classic;html=1;rounded=0;entryX=0.063;entryY=1.013;entryDx=0;entryDy=0;entryPerimeter=0;" parent="1" edge="1">
          <mxGeometry width="50" height="50" relative="1" as="geometry">
            <mxPoint x="-253" y="782.8299999999999" as="sourcePoint" />
            <mxPoint x="-252.28999999999996" y="714" as="targetPoint" />
          </mxGeometry>
        </mxCell>
        <mxCell id="ktwjEbJw_RnijGOUpLHC-11" value="Системы &lt;br&gt;мониторинга" style="text;html=1;align=center;verticalAlign=middle;resizable=0;points=[];autosize=1;strokeColor=none;fillColor=none;" parent="1" vertex="1">
          <mxGeometry x="-300" y="785" width="90" height="40" as="geometry" />
        </mxCell>
        <mxCell id="ktwjEbJw_RnijGOUpLHC-12" value="" style="endArrow=classic;html=1;rounded=0;entryX=0.063;entryY=1.013;entryDx=0;entryDy=0;entryPerimeter=0;" parent="1" edge="1">
          <mxGeometry width="50" height="50" relative="1" as="geometry">
            <mxPoint x="-155.35000000000002" y="782.8299999999999" as="sourcePoint" />
            <mxPoint x="-154.64" y="714" as="targetPoint" />
          </mxGeometry>
        </mxCell>
        <mxCell id="ktwjEbJw_RnijGOUpLHC-14" value="Системы &lt;br&gt;анализа &lt;br&gt;данных" style="text;html=1;align=center;verticalAlign=middle;resizable=0;points=[];autosize=1;strokeColor=none;fillColor=none;" parent="1" vertex="1">
          <mxGeometry x="-190" y="774" width="70" height="60" as="geometry" />
        </mxCell>
        <mxCell id="ktwjEbJw_RnijGOUpLHC-16" value="" style="endArrow=classic;html=1;rounded=0;" parent="1" edge="1">
          <mxGeometry width="50" height="50" relative="1" as="geometry">
            <mxPoint x="-120.71000000000004" y="642.8299999999999" as="sourcePoint" />
            <mxPoint y="644" as="targetPoint" />
          </mxGeometry>
        </mxCell>
        <mxCell id="ktwjEbJw_RnijGOUpLHC-17" value="" style="endArrow=classic;html=1;rounded=0;" parent="1" edge="1">
          <mxGeometry width="50" height="50" relative="1" as="geometry">
            <mxPoint x="-120.71000000000004" y="692" as="sourcePoint" />
            <mxPoint y="694" as="targetPoint" />
          </mxGeometry>
        </mxCell>
        <mxCell id="ktwjEbJw_RnijGOUpLHC-18" value="Отчеты о &lt;br&gt;производительности &lt;br&gt;системы" style="text;html=1;align=center;verticalAlign=middle;resizable=0;points=[];autosize=1;strokeColor=none;fillColor=none;" parent="1" vertex="1">
          <mxGeometry x="-128" y="589" width="140" height="60" as="geometry" />
        </mxCell>
        <mxCell id="ktwjEbJw_RnijGOUpLHC-19" value="Статистические &lt;br&gt;отчеты" style="text;html=1;align=center;verticalAlign=middle;resizable=0;points=[];autosize=1;strokeColor=none;fillColor=none;" parent="1" vertex="1">
          <mxGeometry x="-110" y="649" width="110" height="40" as="geometry" />
        </mxCell>
        <mxCell id="ktwjEbJw_RnijGOUpLHC-21" value="" style="endArrow=classic;html=1;rounded=0;exitX=1;exitY=0.5;exitDx=0;exitDy=0;" parent="1" source="dz_vzdbdL12ZwfbwtRYd-103" edge="1">
          <mxGeometry width="50" height="50" relative="1" as="geometry">
            <mxPoint x="663" y="1374" as="sourcePoint" />
            <mxPoint x="650" y="1340" as="targetPoint" />
            <Array as="points">
              <mxPoint x="640" y="1339" />
            </Array>
          </mxGeometry>
        </mxCell>
        <mxCell id="ktwjEbJw_RnijGOUpLHC-22" value="Отображение&lt;br&gt;результатов&lt;br&gt;поиска" style="text;html=1;align=center;verticalAlign=middle;resizable=0;points=[];autosize=1;strokeColor=none;fillColor=none;" parent="1" vertex="1">
          <mxGeometry x="525" y="1275" width="100" height="60" as="geometry" />
        </mxCell>
        <mxCell id="ktwjEbJw_RnijGOUpLHC-38" value="Поиск расписания" style="rounded=0;whiteSpace=wrap;html=1;" parent="1" vertex="1">
          <mxGeometry x="-288" y="234" width="170" height="90" as="geometry" />
        </mxCell>
        <mxCell id="ktwjEbJw_RnijGOUpLHC-40" value="" style="endArrow=classic;html=1;rounded=0;" parent="1" edge="1">
          <mxGeometry width="50" height="50" relative="1" as="geometry">
            <mxPoint x="-258" y="174" as="sourcePoint" />
            <mxPoint x="-258" y="234" as="targetPoint" />
          </mxGeometry>
        </mxCell>
        <mxCell id="ktwjEbJw_RnijGOUpLHC-41" value="Алгоритмы&lt;br&gt;поиска" style="text;html=1;align=center;verticalAlign=middle;resizable=0;points=[];autosize=1;strokeColor=none;fillColor=none;" parent="1" vertex="1">
          <mxGeometry x="-303" y="130" width="90" height="40" as="geometry" />
        </mxCell>
        <mxCell id="ktwjEbJw_RnijGOUpLHC-42" value="" style="endArrow=classic;html=1;rounded=0;" parent="1" edge="1">
          <mxGeometry width="50" height="50" relative="1" as="geometry">
            <mxPoint x="-158" y="174" as="sourcePoint" />
            <mxPoint x="-158" y="234" as="targetPoint" />
          </mxGeometry>
        </mxCell>
        <mxCell id="ktwjEbJw_RnijGOUpLHC-43" value="Информация в&lt;br&gt;базе данных" style="text;html=1;align=center;verticalAlign=middle;resizable=0;points=[];autosize=1;strokeColor=none;fillColor=none;" parent="1" vertex="1">
          <mxGeometry x="-213" y="130" width="110" height="40" as="geometry" />
        </mxCell>
        <mxCell id="ktwjEbJw_RnijGOUpLHC-44" value="" style="endArrow=classic;html=1;rounded=0;entryX=0.063;entryY=1.013;entryDx=0;entryDy=0;entryPerimeter=0;" parent="1" edge="1">
          <mxGeometry width="50" height="50" relative="1" as="geometry">
            <mxPoint x="-205.35" y="392.8299999999999" as="sourcePoint" />
            <mxPoint x="-204.63999999999996" y="324" as="targetPoint" />
          </mxGeometry>
        </mxCell>
        <mxCell id="ktwjEbJw_RnijGOUpLHC-45" value="Пользователь" style="text;html=1;align=center;verticalAlign=middle;resizable=0;points=[];autosize=1;strokeColor=none;fillColor=none;" parent="1" vertex="1">
          <mxGeometry x="-255" y="400" width="100" height="30" as="geometry" />
        </mxCell>
        <mxCell id="ktwjEbJw_RnijGOUpLHC-48" value="" style="endArrow=classic;html=1;rounded=0;" parent="1" edge="1">
          <mxGeometry width="50" height="50" relative="1" as="geometry">
            <mxPoint x="-118.36000000000004" y="277.99999999999994" as="sourcePoint" />
            <mxPoint x="2" y="278" as="targetPoint" />
          </mxGeometry>
        </mxCell>
        <mxCell id="ktwjEbJw_RnijGOUpLHC-49" value="Результаты поиска" style="text;html=1;align=center;verticalAlign=middle;resizable=0;points=[];autosize=1;strokeColor=none;fillColor=none;" parent="1" vertex="1">
          <mxGeometry x="-120" y="241" width="130" height="30" as="geometry" />
        </mxCell>
        <mxCell id="ktwjEbJw_RnijGOUpLHC-55" value="Ввод&lt;br&gt;курса" style="rounded=0;whiteSpace=wrap;html=1;" parent="1" vertex="1">
          <mxGeometry x="-563.85" y="1710.3600000000001" width="170" height="90" as="geometry" />
        </mxCell>
        <mxCell id="ktwjEbJw_RnijGOUpLHC-56" value="" style="endArrow=classic;html=1;rounded=0;" parent="1" edge="1">
          <mxGeometry width="50" height="50" relative="1" as="geometry">
            <mxPoint x="-683.85" y="1756.3600000000001" as="sourcePoint" />
            <mxPoint x="-563.85" y="1756.3600000000001" as="targetPoint" />
          </mxGeometry>
        </mxCell>
        <mxCell id="ktwjEbJw_RnijGOUpLHC-57" value="" style="endArrow=classic;html=1;rounded=0;exitX=-0.023;exitY=-0.034;exitDx=0;exitDy=0;exitPerimeter=0;" parent="1" source="ktwjEbJw_RnijGOUpLHC-58" edge="1">
          <mxGeometry width="50" height="50" relative="1" as="geometry">
            <mxPoint x="75.15" y="1641.3600000000001" as="sourcePoint" />
            <mxPoint x="75.53" y="1890.3600000000001" as="targetPoint" />
          </mxGeometry>
        </mxCell>
        <mxCell id="ktwjEbJw_RnijGOUpLHC-58" value="Алгоритмы&lt;br style=&quot;border-color: var(--border-color);&quot;&gt;проверки&lt;br style=&quot;border-color: var(--border-color);&quot;&gt;конфликтов" style="text;html=1;align=center;verticalAlign=middle;resizable=0;points=[];autosize=1;strokeColor=none;fillColor=none;" parent="1" vertex="1">
          <mxGeometry x="78" y="1580.0000000000002" width="90" height="60" as="geometry" />
        </mxCell>
        <mxCell id="ktwjEbJw_RnijGOUpLHC-59" value="" style="endArrow=classic;html=1;rounded=0;entryX=-0.002;entryY=0.337;entryDx=0;entryDy=0;entryPerimeter=0;exitX=0.978;exitY=0.423;exitDx=0;exitDy=0;exitPerimeter=0;" parent="1" source="ktwjEbJw_RnijGOUpLHC-82" target="ktwjEbJw_RnijGOUpLHC-61" edge="1">
          <mxGeometry width="50" height="50" relative="1" as="geometry">
            <mxPoint x="-394.56000000000006" y="1745.3600000000001" as="sourcePoint" />
            <mxPoint x="-281.85" y="1812.3600000000001" as="targetPoint" />
            <Array as="points">
              <mxPoint x="-342" y="1783" />
              <mxPoint x="-342" y="1830" />
            </Array>
          </mxGeometry>
        </mxCell>
        <mxCell id="ktwjEbJw_RnijGOUpLHC-60" value="Список&amp;nbsp;&lt;br&gt;дисциплин" style="text;html=1;align=center;verticalAlign=middle;resizable=0;points=[];autosize=1;strokeColor=none;fillColor=none;" parent="1" vertex="1">
          <mxGeometry x="136.14999999999998" y="2030.36" width="80" height="40" as="geometry" />
        </mxCell>
        <mxCell id="ktwjEbJw_RnijGOUpLHC-61" value="Ввод&lt;br&gt;специальности" style="rounded=0;whiteSpace=wrap;html=1;" parent="1" vertex="1">
          <mxGeometry x="-281.85" y="1800.3600000000001" width="170" height="90" as="geometry" />
        </mxCell>
        <mxCell id="ktwjEbJw_RnijGOUpLHC-62" value="Ввод&amp;nbsp;&lt;br&gt;группы" style="rounded=0;whiteSpace=wrap;html=1;" parent="1" vertex="1">
          <mxGeometry x="1.15" y="1890.3600000000001" width="170" height="90" as="geometry" />
        </mxCell>
        <mxCell id="ktwjEbJw_RnijGOUpLHC-63" value="" style="endArrow=classic;html=1;rounded=0;entryX=0.002;entryY=0.334;entryDx=0;entryDy=0;entryPerimeter=0;exitX=1.004;exitY=0.825;exitDx=0;exitDy=0;exitPerimeter=0;" parent="1" source="ktwjEbJw_RnijGOUpLHC-61" target="ktwjEbJw_RnijGOUpLHC-62" edge="1">
          <mxGeometry width="50" height="50" relative="1" as="geometry">
            <mxPoint x="-111.56000000000003" y="1841.3600000000001" as="sourcePoint" />
            <mxPoint x="1.15" y="1937.3600000000001" as="targetPoint" />
            <Array as="points">
              <mxPoint x="-60" y="1875" />
              <mxPoint x="-60" y="1920" />
            </Array>
          </mxGeometry>
        </mxCell>
        <mxCell id="ktwjEbJw_RnijGOUpLHC-64" value="Ввод&lt;br&gt;дисциплины" style="rounded=0;whiteSpace=wrap;html=1;" parent="1" vertex="1">
          <mxGeometry x="283.85999999999996" y="1990.3600000000001" width="170" height="90" as="geometry" />
        </mxCell>
        <mxCell id="ktwjEbJw_RnijGOUpLHC-65" value="" style="endArrow=classic;html=1;rounded=0;entryX=-0.002;entryY=0.455;entryDx=0;entryDy=0;entryPerimeter=0;" parent="1" edge="1">
          <mxGeometry width="50" height="50" relative="1" as="geometry">
            <mxPoint x="171.14999999999995" y="1941.3600000000001" as="sourcePoint" />
            <mxPoint x="283.85999999999996" y="2037.3600000000001" as="targetPoint" />
            <Array as="points">
              <mxPoint x="223.85999999999999" y="1941.3600000000001" />
              <mxPoint x="223.85999999999999" y="2037.3600000000001" />
            </Array>
          </mxGeometry>
        </mxCell>
        <mxCell id="ktwjEbJw_RnijGOUpLHC-66" value="" style="endArrow=classic;html=1;rounded=0;exitX=0.997;exitY=0.866;exitDx=0;exitDy=0;exitPerimeter=0;" parent="1" edge="1">
          <mxGeometry width="50" height="50" relative="1" as="geometry">
            <mxPoint x="453.85999999999996" y="2035.23" as="sourcePoint" />
            <mxPoint x="574.86" y="2035.23" as="targetPoint" />
          </mxGeometry>
        </mxCell>
        <mxCell id="ktwjEbJw_RnijGOUpLHC-67" value="Обновленное &lt;br&gt;расписание" style="text;html=1;align=center;verticalAlign=middle;resizable=0;points=[];autosize=1;strokeColor=none;fillColor=none;" parent="1" vertex="1">
          <mxGeometry x="468.85999999999996" y="1990.3600000000001" width="100" height="40" as="geometry" />
        </mxCell>
        <mxCell id="ktwjEbJw_RnijGOUpLHC-68" value="" style="endArrow=classic;html=1;rounded=0;" parent="1" edge="1">
          <mxGeometry width="50" height="50" relative="1" as="geometry">
            <mxPoint x="-201.85" y="1641.3600000000001" as="sourcePoint" />
            <mxPoint x="-201.47" y="1800.3600000000001" as="targetPoint" />
          </mxGeometry>
        </mxCell>
        <mxCell id="ktwjEbJw_RnijGOUpLHC-69" value="" style="endArrow=classic;html=1;rounded=0;" parent="1" edge="1">
          <mxGeometry width="50" height="50" relative="1" as="geometry">
            <mxPoint x="-481.85" y="1641.3600000000001" as="sourcePoint" />
            <mxPoint x="-481.47" y="1710.3600000000001" as="targetPoint" />
          </mxGeometry>
        </mxCell>
        <mxCell id="ktwjEbJw_RnijGOUpLHC-70" value="" style="endArrow=classic;html=1;rounded=0;" parent="1" edge="1">
          <mxGeometry width="50" height="50" relative="1" as="geometry">
            <mxPoint x="358.15" y="1641.3600000000001" as="sourcePoint" />
            <mxPoint x="358.53" y="1990.3600000000001" as="targetPoint" />
          </mxGeometry>
        </mxCell>
        <mxCell id="ktwjEbJw_RnijGOUpLHC-71" value="" style="endArrow=none;html=1;rounded=0;" parent="1" edge="1">
          <mxGeometry width="50" height="50" relative="1" as="geometry">
            <mxPoint x="-481.85" y="1641.3600000000001" as="sourcePoint" />
            <mxPoint x="358.15" y="1641.3600000000001" as="targetPoint" />
          </mxGeometry>
        </mxCell>
        <mxCell id="ktwjEbJw_RnijGOUpLHC-72" value="" style="endArrow=classic;html=1;rounded=0;exitX=-0.023;exitY=-0.034;exitDx=0;exitDy=0;exitPerimeter=0;entryX=0.471;entryY=1.003;entryDx=0;entryDy=0;entryPerimeter=0;" parent="1" target="ktwjEbJw_RnijGOUpLHC-61" edge="1">
          <mxGeometry width="50" height="50" relative="1" as="geometry">
            <mxPoint x="-201.85" y="2211.36" as="sourcePoint" />
            <mxPoint x="-201.23" y="1921.3600000000001" as="targetPoint" />
          </mxGeometry>
        </mxCell>
        <mxCell id="ktwjEbJw_RnijGOUpLHC-73" value="" style="endArrow=classic;html=1;rounded=0;entryX=0.509;entryY=0.995;entryDx=0;entryDy=0;entryPerimeter=0;" parent="1" target="ktwjEbJw_RnijGOUpLHC-62" edge="1">
          <mxGeometry width="50" height="50" relative="1" as="geometry">
            <mxPoint x="88.15" y="2151.36" as="sourcePoint" />
            <mxPoint x="85.75" y="1980.3600000000001" as="targetPoint" />
          </mxGeometry>
        </mxCell>
        <mxCell id="ktwjEbJw_RnijGOUpLHC-74" value="" style="endArrow=classic;html=1;rounded=0;" parent="1" edge="1">
          <mxGeometry width="50" height="50" relative="1" as="geometry">
            <mxPoint x="378.53" y="2149.36" as="sourcePoint" />
            <mxPoint x="378.15" y="2080.36" as="targetPoint" />
          </mxGeometry>
        </mxCell>
        <mxCell id="ktwjEbJw_RnijGOUpLHC-75" value="" style="endArrow=classic;html=1;rounded=0;entryX=0.482;entryY=1.002;entryDx=0;entryDy=0;entryPerimeter=0;" parent="1" target="ktwjEbJw_RnijGOUpLHC-55" edge="1">
          <mxGeometry width="50" height="50" relative="1" as="geometry">
            <mxPoint x="-481.85" y="2151.36" as="sourcePoint" />
            <mxPoint x="-479.52" y="1800.3600000000001" as="targetPoint" />
          </mxGeometry>
        </mxCell>
        <mxCell id="ktwjEbJw_RnijGOUpLHC-76" value="" style="endArrow=none;html=1;rounded=0;" parent="1" edge="1">
          <mxGeometry width="50" height="50" relative="1" as="geometry">
            <mxPoint x="378.15" y="2151.36" as="sourcePoint" />
            <mxPoint x="-481.85" y="2151.36" as="targetPoint" />
          </mxGeometry>
        </mxCell>
        <mxCell id="ktwjEbJw_RnijGOUpLHC-77" value="Администратор" style="text;html=1;align=center;verticalAlign=middle;resizable=0;points=[];autosize=1;strokeColor=none;fillColor=none;" parent="1" vertex="1">
          <mxGeometry x="-202.85" y="2168.36" width="110" height="30" as="geometry" />
        </mxCell>
        <mxCell id="ktwjEbJw_RnijGOUpLHC-78" value="" style="endArrow=classic;html=1;rounded=0;entryX=-0.001;entryY=0.897;entryDx=0;entryDy=0;entryPerimeter=0;" parent="1" target="ktwjEbJw_RnijGOUpLHC-62" edge="1">
          <mxGeometry width="50" height="50" relative="1" as="geometry">
            <mxPoint x="-80" y="1971" as="sourcePoint" />
            <mxPoint x="-280.8299999999998" y="1970.73" as="targetPoint" />
          </mxGeometry>
        </mxCell>
        <mxCell id="ktwjEbJw_RnijGOUpLHC-79" value="Список&lt;br&gt;специальностей" style="text;html=1;align=center;verticalAlign=middle;resizable=0;points=[];autosize=1;strokeColor=none;fillColor=none;" parent="1" vertex="1">
          <mxGeometry x="-390" y="1830" width="110" height="40" as="geometry" />
        </mxCell>
        <mxCell id="ktwjEbJw_RnijGOUpLHC-80" value="" style="endArrow=classic;html=1;rounded=0;entryX=0.005;entryY=0.882;entryDx=0;entryDy=0;entryPerimeter=0;" parent="1" target="ktwjEbJw_RnijGOUpLHC-64" edge="1">
          <mxGeometry width="50" height="50" relative="1" as="geometry">
            <mxPoint x="130" y="2070" as="sourcePoint" />
            <mxPoint x="1.15" y="2070.36" as="targetPoint" />
          </mxGeometry>
        </mxCell>
        <mxCell id="ktwjEbJw_RnijGOUpLHC-81" value="Список&amp;nbsp;&lt;br&gt;курсов" style="text;html=1;align=center;verticalAlign=middle;resizable=0;points=[];autosize=1;strokeColor=none;fillColor=none;" parent="1" vertex="1">
          <mxGeometry x="-660" y="1720.0000000000002" width="70" height="40" as="geometry" />
        </mxCell>
        <mxCell id="ktwjEbJw_RnijGOUpLHC-82" value="А0" style="text;html=1;align=center;verticalAlign=middle;resizable=0;points=[];autosize=1;strokeColor=none;fillColor=none;" parent="1" vertex="1">
          <mxGeometry x="-431.85" y="1770.3600000000001" width="40" height="30" as="geometry" />
        </mxCell>
        <mxCell id="ktwjEbJw_RnijGOUpLHC-83" value="А1" style="text;html=1;align=center;verticalAlign=middle;resizable=0;points=[];autosize=1;strokeColor=none;fillColor=none;" parent="1" vertex="1">
          <mxGeometry x="-151.85" y="1860.3600000000001" width="40" height="30" as="geometry" />
        </mxCell>
        <mxCell id="ktwjEbJw_RnijGOUpLHC-84" value="А2" style="text;html=1;align=center;verticalAlign=middle;resizable=0;points=[];autosize=1;strokeColor=none;fillColor=none;" parent="1" vertex="1">
          <mxGeometry x="136.15" y="1950.3600000000001" width="40" height="30" as="geometry" />
        </mxCell>
        <mxCell id="ktwjEbJw_RnijGOUpLHC-85" value="А3" style="text;html=1;align=center;verticalAlign=middle;resizable=0;points=[];autosize=1;strokeColor=none;fillColor=none;" parent="1" vertex="1">
          <mxGeometry x="418.65" y="2050.36" width="40" height="30" as="geometry" />
        </mxCell>
        <mxCell id="ktwjEbJw_RnijGOUpLHC-86" value="" style="endArrow=classic;html=1;rounded=0;" parent="1" edge="1">
          <mxGeometry width="50" height="50" relative="1" as="geometry">
            <mxPoint x="-390" y="1875" as="sourcePoint" />
            <mxPoint x="-280" y="1875" as="targetPoint" />
          </mxGeometry>
        </mxCell>
        <mxCell id="ktwjEbJw_RnijGOUpLHC-87" value="Список&lt;br&gt;групп" style="text;html=1;align=center;verticalAlign=middle;resizable=0;points=[];autosize=1;strokeColor=none;fillColor=none;" parent="1" vertex="1">
          <mxGeometry x="-72" y="1930.0000000000002" width="60" height="40" as="geometry" />
        </mxCell>
        <mxCell id="ktwjEbJw_RnijGOUpLHC-89" value="" style="endArrow=classic;html=1;rounded=0;entryX=0;entryY=0.25;entryDx=0;entryDy=0;exitX=1;exitY=0.25;exitDx=0;exitDy=0;" parent="1" source="ktwjEbJw_RnijGOUpLHC-61" target="ktwjEbJw_RnijGOUpLHC-64" edge="1">
          <mxGeometry width="50" height="50" relative="1" as="geometry">
            <mxPoint x="-392.85" y="1726.18" as="sourcePoint" />
            <mxPoint x="-281.85" y="1784.18" as="targetPoint" />
            <Array as="points">
              <mxPoint x="250" y="1820" />
              <mxPoint x="250" y="2013" />
            </Array>
          </mxGeometry>
        </mxCell>
        <mxCell id="ktwjEbJw_RnijGOUpLHC-90" value="Данные о&lt;br&gt;курсе" style="text;html=1;align=center;verticalAlign=middle;resizable=0;points=[];autosize=1;strokeColor=none;fillColor=none;" parent="1" vertex="1">
          <mxGeometry x="-390" y="1740" width="80" height="40" as="geometry" />
        </mxCell>
        <mxCell id="ktwjEbJw_RnijGOUpLHC-91" value="Данные о&lt;br&gt;специальности" style="text;html=1;align=center;verticalAlign=middle;resizable=0;points=[];autosize=1;strokeColor=none;fillColor=none;" parent="1" vertex="1">
          <mxGeometry x="-113.85000000000002" y="1780" width="110" height="40" as="geometry" />
        </mxCell>
        <mxCell id="ktwjEbJw_RnijGOUpLHC-92" value="Данные о&lt;br&gt;специальности" style="text;html=1;align=center;verticalAlign=middle;resizable=0;points=[];autosize=1;strokeColor=none;fillColor=none;" parent="1" vertex="1">
          <mxGeometry x="-115.00000000000003" y="1835" width="110" height="40" as="geometry" />
        </mxCell>
        <mxCell id="ktwjEbJw_RnijGOUpLHC-93" value="Данные о&lt;br&gt;группе" style="text;html=1;align=center;verticalAlign=middle;resizable=0;points=[];autosize=1;strokeColor=none;fillColor=none;" parent="1" vertex="1">
          <mxGeometry x="167.99999999999997" y="1900" width="80" height="40" as="geometry" />
        </mxCell>
        <mxCell id="ktwjEbJw_RnijGOUpLHC-94" value="" style="endArrow=classic;html=1;rounded=0;" parent="1" edge="1">
          <mxGeometry width="50" height="50" relative="1" as="geometry">
            <mxPoint x="-408" y="278.63" as="sourcePoint" />
            <mxPoint x="-288" y="278.63" as="targetPoint" />
          </mxGeometry>
        </mxCell>
        <mxCell id="ktwjEbJw_RnijGOUpLHC-95" value="Параметры поиска" style="text;html=1;align=center;verticalAlign=middle;resizable=0;points=[];autosize=1;strokeColor=none;fillColor=none;" parent="1" vertex="1">
          <mxGeometry x="-415" y="240" width="130" height="30" as="geometry" />
        </mxCell>
        <mxCell id="bo27ThrFl2RBqIt6ePjS-3" value="" style="endArrow=classic;html=1;rounded=0;entryX=0.5;entryY=0;entryDx=0;entryDy=0;" edge="1" parent="1">
          <mxGeometry width="50" height="50" relative="1" as="geometry">
            <mxPoint x="-470" y="1110" as="sourcePoint" />
            <mxPoint x="-470" y="1150" as="targetPoint" />
          </mxGeometry>
        </mxCell>
        <mxCell id="bo27ThrFl2RBqIt6ePjS-4" value="Информация из&lt;br&gt;базы данных" style="text;html=1;align=center;verticalAlign=middle;resizable=0;points=[];autosize=1;strokeColor=none;fillColor=none;" vertex="1" parent="1">
          <mxGeometry x="-527" y="1072" width="110" height="40" as="geometry" />
        </mxCell>
        <mxCell id="bo27ThrFl2RBqIt6ePjS-5" value="" style="endArrow=classic;html=1;rounded=0;entryX=0.5;entryY=0;entryDx=0;entryDy=0;" edge="1" parent="1">
          <mxGeometry width="50" height="50" relative="1" as="geometry">
            <mxPoint x="-379.65" y="1110" as="sourcePoint" />
            <mxPoint x="-379.65" y="1150" as="targetPoint" />
          </mxGeometry>
        </mxCell>
        <mxCell id="bo27ThrFl2RBqIt6ePjS-6" value="Запрос&lt;br&gt;пользователя" style="text;html=1;align=center;verticalAlign=middle;resizable=0;points=[];autosize=1;strokeColor=none;fillColor=none;" vertex="1" parent="1">
          <mxGeometry x="-431.85" y="1072" width="100" height="40" as="geometry" />
        </mxCell>
      </root>
    </mxGraphModel>
  </diagram>
</mxfile>
